<svg xmlns="http://www.w3.org/2000/svg" xmlns:xlink="http://www.w3.org/1999/xlink" viewBox="0 0 154 32"><g transform="translate(0.129 0.129)" id="ss11303002675_1"><path d="M 0 0 L 153.741 0 L 153.741 31.742 L 0 31.742 Z" fill="transparent"></path><g transform="translate(0.228 0)" id="ss11303002675_3"><g id="ss11303002675_4"><g transform="translate(38.549 5.442)" id="ss11303002675_5"><path d="M 14.378 14.941 C 14.378 17.702 12.398 20.519 8.295 20.519 L 0 20.519 L 0 0.91 L 7.691 0.91 C 11.135 0.91 13.316 2.959 13.316 5.947 C 13.316 7.484 12.741 9.334 10.733 10.045 C 13.143 10.528 14.378 12.777 14.378 14.939 Z M 7.547 4.012 L 3.5 4.012 L 3.5 8.823 L 7.547 8.823 C 9.011 8.823 9.815 7.854 9.815 6.433 C 9.815 5.011 9.07 4.015 7.547 4.015 L 7.547 4.013 Z M 7.748 17.416 C 9.787 17.416 10.847 16.079 10.847 14.599 C 10.847 13.204 9.929 11.754 7.834 11.754 L 3.5 11.754 L 3.5 17.418 L 7.748 17.418 L 7.748 17.416 Z M 29.186 13.063 L 29.186 20.519 L 25.856 20.519 L 25.856 13.29 C 25.856 11.156 24.565 10.019 23.072 10.019 C 21.58 10.019 19.657 10.901 19.657 13.49 L 19.657 20.519 L 16.327 20.519 L 16.327 0 L 19.657 0 L 19.657 9.25 C 20.317 7.627 22.469 6.888 23.817 6.888 C 27.261 6.888 29.184 9.193 29.184 13.063 Z M 42.071 7.228 L 45.401 7.228 L 45.401 20.519 L 42.071 20.519 L 42.071 18.441 C 41.182 19.892 39.403 20.859 37.478 20.859 C 33.891 20.859 31.022 17.984 31.022 13.858 C 31.022 9.733 33.777 6.886 37.566 6.886 C 39.403 6.886 41.182 7.683 42.071 9.076 L 42.071 7.226 Z M 42.012 13.858 C 42.012 11.581 40.118 9.96 38.138 9.96 C 35.986 9.96 34.35 11.724 34.35 13.858 C 34.35 15.993 35.986 17.787 38.167 17.787 C 40.234 17.787 42.012 16.079 42.012 13.858 Z M 57.568 7.343 L 56.908 10.474 C 56.132 10.075 55.444 9.99 54.957 9.99 C 52.776 9.99 51.57 12.153 51.57 15.882 L 51.57 20.521 L 48.212 20.521 L 48.212 7.228 L 51.541 7.228 L 51.541 10.073 C 52.258 7.854 53.722 6.886 55.387 6.886 C 56.191 6.886 57.052 7.057 57.568 7.341 Z M 68.443 7.228 L 71.773 7.228 L 71.773 20.519 L 68.443 20.519 L 68.443 18.441 C 67.554 19.892 65.775 20.859 63.85 20.859 C 60.263 20.859 57.394 17.984 57.394 13.858 C 57.394 9.733 60.149 6.886 63.938 6.886 C 65.775 6.886 67.554 7.683 68.443 9.076 L 68.443 7.226 Z M 68.387 13.858 C 68.387 11.581 66.492 9.96 64.512 9.96 C 62.36 9.96 60.723 11.724 60.723 13.858 C 60.723 15.993 62.36 17.787 64.541 17.787 C 66.608 17.787 68.387 16.079 68.387 13.858 Z M 81.96 7.228 L 81.96 9.846 L 79.12 9.846 L 79.12 20.517 L 75.789 20.517 L 75.789 9.846 L 73.379 9.846 L 73.379 7.228 L 75.789 7.228 L 75.789 2.333 L 79.12 2.333 L 79.12 7.228 Z" fill="rgb(44,56,122)"></path><path d="M 95.907 4.013 L 87.412 4.013 L 87.412 9.334 L 94.127 9.334 L 94.127 12.437 L 87.412 12.437 L 87.412 20.519 L 83.911 20.519 L 83.911 0.91 L 95.907 0.91 Z M 105.325 0.91 C 110.978 0.91 114.279 5.178 114.279 10.756 C 114.279 16.333 110.98 20.517 105.325 20.517 L 97.576 20.517 L 97.576 0.91 Z M 105.325 17.416 C 108.913 17.416 110.748 14.4 110.748 10.758 C 110.748 7.115 108.911 4.013 105.325 4.013 L 101.077 4.013 L 101.077 17.416 Z" fill="rgb(228,128,58)"></path></g><g id="ss11303002675_8"><g id="ss11303002675_9"><path d="M 15.739 31.289 C 24.431 31.289 31.478 24.284 31.478 15.644 C 31.478 7.004 24.431 0 15.739 0 C 7.046 0 0 7.004 0 15.644 C 0 24.284 7.046 31.289 15.739 31.289 Z" fill="rgb(44,56,122)"></path><path d="M 23.659 9.28 L 23.088 7.509 L 16.363 7.509 L 16.933 9.28 L 19.108 9.28 L 19.108 16.999 L 16.02 16.999 L 16.02 10.983 C 16.02 8.968 14.371 7.329 12.344 7.329 C 10.316 7.329 8.668 8.968 8.668 10.983 C 8.668 12.998 10.316 14.637 12.344 14.637 C 13.012 14.637 13.667 14.454 14.238 14.108 L 14.238 16.999 L 12.344 16.999 C 10.316 16.999 8.668 18.637 8.668 20.653 C 8.668 22.668 10.316 24.307 12.344 24.307 C 14.371 24.307 16.02 22.668 16.02 20.653 L 16.02 18.77 L 19.108 18.77 L 19.108 24.293 L 20.889 22.966 L 20.889 9.28 Z M 12.345 12.865 C 11.302 12.865 10.451 12.019 10.451 10.981 C 10.451 9.944 11.3 9.098 12.346 9.098 C 13.391 9.098 14.24 9.944 14.24 10.981 C 14.24 12.019 13.391 12.865 12.346 12.865 Z M 12.345 22.534 C 11.302 22.534 10.451 21.691 10.451 20.651 C 10.451 20.152 10.651 19.673 11.006 19.32 C 11.746 18.584 12.944 18.584 13.685 19.32 C 14.04 19.672 14.24 20.152 14.24 20.651 C 14.24 21.151 14.04 21.63 13.685 21.983 C 13.329 22.336 12.848 22.535 12.345 22.534 Z" fill="rgb(255,255,255)"></path></g></g></g></g></g></svg>